<svg width="43" height="44" viewBox="0 0 43 44" fill="none" xmlns="http://www.w3.org/2000/svg">
<path d="M8.56277 9.82979L10.2381 18.6298L11.4481 24.7149L12.3788 29.3021C11.8203 29.4894 11.355 29.7702 10.9827 30.2383C10.4242 30.8936 10.145 31.6426 10.2381 32.4851C10.4242 34.0766 11.8203 35.2936 13.4957 35.2936H42.0693V33.4213H13.3095C12.5649 33.4213 12.0065 32.9532 11.9134 32.2979C11.9134 32.017 12.0065 31.7362 12.1926 31.4553C12.4719 31.1745 12.8442 30.9872 13.3095 30.9872H39.5563L41.0455 22.8426L42.1623 16.7574L43 12.1702L32.5758 11.5149L24.8507 11.0468L17.1255 10.5787L10.4242 10.1106L8.56277 0H0V1.87234H6.98052L8.56277 9.82979ZM32.5758 22.8426H26.7121V18.6298H32.5758V22.8426ZM24.8507 22.8426H18.987V18.6298H24.8507V22.8426ZM17.1255 22.8426H12.9372L12.0996 18.6298H17.1255V22.8426ZM14.1472 29.1149L13.3095 24.7149H17.1255V29.1149H14.1472ZM18.987 29.1149V24.7149H24.8507V29.1149H18.987ZM26.7121 29.1149V24.7149H32.5758V29.1149H26.7121ZM38.0671 29.1149H34.4372V24.7149H38.8117L38.0671 29.1149ZM34.4372 22.8426V18.6298H39.9286L39.184 22.8426H34.4372ZM40.3009 16.7574H34.4372V13.4809L40.8593 13.9489L40.3009 16.7574ZM32.5758 16.7574H26.7121V12.9191L32.5758 13.2936V16.7574ZM24.8507 16.7574H18.987V12.4511L24.8507 12.8255V16.7574ZM17.1255 12.3574V16.8511H11.7273L10.7965 11.983L17.1255 12.3574ZM21.7792 40.1617C21.7792 38.1021 20.1039 36.3234 17.9632 36.3234C15.8225 36.3234 14.1472 38.0085 14.1472 40.1617C14.1472 42.3149 15.8225 44 17.9632 44C20.1039 44 21.7792 42.3149 21.7792 40.1617ZM16.0087 40.1617C16.0087 39.1319 16.8463 38.1957 17.9632 38.1957C18.987 38.1957 19.9178 39.0383 19.9178 40.1617C19.9178 41.1915 19.0801 42.1277 17.9632 42.1277C16.9394 42.1277 16.0087 41.2851 16.0087 40.1617ZM38.5325 40.1617C38.5325 38.1021 36.8571 36.3234 34.7165 36.3234C32.5758 36.3234 30.9004 38.0085 30.9004 40.1617C30.9004 42.3149 32.5758 44 34.7165 44C36.8571 44 38.5325 42.3149 38.5325 40.1617ZM32.855 40.1617C32.855 39.1319 33.6926 38.1957 34.8095 38.1957C35.9264 38.1957 36.7641 39.0383 36.7641 40.1617C36.7641 41.1915 35.9264 42.1277 34.8095 42.1277C33.6926 42.1277 32.855 41.2851 32.855 40.1617Z" fill="white"/>
</svg>
