<svg width="350" height="350" viewBox="0 0 350 350" fill="none" xmlns="http://www.w3.org/2000/svg">
<path d="M175 320.833C255.542 320.833 320.833 255.541 320.833 175C320.833 94.4583 255.542 29.1665 175 29.1665C94.4586 29.1665 29.1667 94.4583 29.1667 175C29.1667 255.541 94.4586 320.833 175 320.833Z" fill="#FF0000"/>
<path d="M218.75 131.25L131.25 218.75M131.25 131.25L218.75 218.75M320.833 175C320.833 255.541 255.542 320.833 175 320.833C94.4586 320.833 29.1667 255.541 29.1667 175C29.1667 94.4583 94.4586 29.1665 175 29.1665C255.542 29.1665 320.833 94.4583 320.833 175Z" stroke="#1E1E1E" stroke-width="15" stroke-linecap="round" stroke-linejoin="round"/>
</svg>
